PathFileType	4	(X/Y/Z)	TVC_60_BWA02_walk_RCNL2025.trc
DataRate	CameraRate	NumFrames	NumMarkers	Units	OrigDataRate	OrigDataStartFrame	OrigNumFrames
100	100	8	27	mm	100	1	276
Frame#	Time	R_Shoulder			L_Shoulder			C7			J_Notch			R_Elbow			L_Elbow			R_Wrist			L_Wrist			R_Asis			L_Asis			R_Psis			L_Psis			Sacral			Thoracic			Sternum			R_Thigh_Lateral			R_Knee_Lateral			R_Shank_Lateral			R_Ankle_Lateral			R_Heel			R_Toe			L_Thigh_Lateral			L_Knee_Lateral			L_Shank_Lateral			L_Ankle_Lateral			L_Heel			L_Toe		
		X1	Y1	Z1	X2	Y2	Z2	X3	Y3	Z3	X4	Y4	Z4	X5	Y5	Z5	X6	Y6	Z6	X7	Y7	Z7	X8	Y8	Z8	X9	Y9	Z9	X10	Y10	Z10	X11	Y11	Z11	X12	Y12	Z12	X13	Y13	Z13	X14	Y14	Z14	X15	Y15	Z15	X16	Y16	Z16	X17	Y17	Z17	X18	Y18	Z18	X19	Y19	Z19	X20	Y20	Z20	X21	Y21	Z21	X22	Y22	Z22	X23	Y23	Z23	X24	Y24	Z24	X25	Y25	Z25	X26	Y26	Z26	X27	Y27	Z27
1	0.00000000	-884.658691	1323.556885	-48.157307	-910.444214	1343.828003	-399.857544	-952.245300	1398.814941	-222.221512	-842.610291	1269.101440	-231.693329	-978.380859	1006.568604	43.393730	-983.190796	1005.619385	-456.541473	-929.365021	779.300781	96.035515	-906.639832	787.500397	-505.654282	-854.055054	913.051941	-86.767693	-887.814758	908.454102	-367.081604	-1038.924683	912.969788	-144.032318	-1052.401367	911.185852	-254.294006	-1045.663025	912.077820	-199.163162	-1008.580750	1191.199463	-219.734329	-815.903931	1074.928223	-224.680435	-848.433716	598.454468	-23.260654	-807.005005	446.381744	-106.783043	-828.138733	228.510773	-80.680183	-878.097351	62.671528	-149.547379	-923.997192	57.470287	-195.730804	-749.551208	43.224216	-165.809113	-924.709473	627.586670	-427.541199	-919.676147	436.974304	-356.528198	-1073.636841	325.211426	-372.426849	-1222.310425	198.579407	-285.022522	-1239.808228	233.409439	-236.145844	-1164.747681	84.490738	-284.136322
2	0.01000000	-876.178833	1323.909424	-48.064125	-903.689697	1344.645874	-399.514801	-944.610596	1399.709961	-221.702072	-835.381042	1269.542969	-231.796112	-968.267944	1006.736877	44.411655	-977.399170	1006.666382	-456.087128	-916.306061	779.842285	96.016510	-902.591156	788.085480	-505.456772	-847.206665	913.518738	-86.467827	-881.794189	909.362427	-366.837280	-1032.280640	913.733032	-143.269363	-1046.086792	911.988403	-253.472687	-1039.183716	912.860718	-198.371025	-1001.546143	1192.282593	-218.712738	-809.230469	1075.225830	-225.091415	-842.866089	598.332214	-23.341166	-803.829102	445.804077	-107.262985	-827.048767	228.134827	-80.825333	-878.071289	62.881702	-149.812210	-923.950256	57.625233	-195.878113	-749.541626	43.263081	-166.143753	-913.326294	628.148499	-427.711365	-900.843628	439.048859	-357.149323	-1055.473633	329.263275	-373.089813	-1204.109009	202.208817	-286.568665	-1222.055054	236.249802	-237.188202	-1145.308594	89.235130	-288.608398
3	0.02000000	-867.742493	1324.239868	-48.010094	-896.961365	1345.385498	-399.205109	-937.011230	1400.526733	-221.225403	-828.173584	1269.935303	-231.916656	-958.097961	1006.862183	45.369892	-971.622131	1007.624573	-455.639465	-903.203339	780.377991	95.876644	-898.429779	788.620514	-505.278015	-840.384338	913.948853	-86.171806	-875.677673	910.258545	-366.591309	-1025.629883	914.417603	-142.581696	-1039.717896	912.706848	-252.735077	-1032.673889	913.562225	-197.658386	-994.529053	1193.280151	-217.751434	-802.554260	1075.501831	-225.470627	-837.424255	598.191956	-23.425774	-800.731079	445.227142	-107.699593	-825.973267	227.762573	-80.969498	-878.022522	63.034431	-150.059448	-923.907532	57.768257	-196.005219	-749.533447	43.297977	-166.453491	-901.742371	628.914185	-427.858582	-882.201416	441.315826	-357.711060	-1036.899658	332.624725	-373.907288	-1185.167236	204.708984	-288.296051	-1203.758423	238.007202	-238.574768	-1124.756470	93.081497	-292.592865
4	0.03000000	-859.349854	1324.548340	-47.995140	-890.259033	1346.046753	-398.928528	-929.447327	1401.265381	-220.791534	-820.987854	1270.278564	-232.054886	-947.870972	1006.944458	46.268436	-965.859680	1008.493896	-455.198517	-890.056915	780.907806	95.615982	-894.155609	789.105377	-505.117996	-833.588074	914.341980	-85.879555	-869.464966	911.142029	-366.343781	-1018.972412	915.023438	-141.969330	-1033.294800	913.341064	-252.081238	-1026.133606	914.182251	-197.025284	-987.529480	1194.192261	-216.850479	-795.875183	1075.756226	-225.818130	-832.104797	598.033936	-23.514326	-797.710693	444.650787	-108.092812	-824.909241	227.393295	-81.112251	-877.951660	63.131340	-150.288452	-923.869080	57.899391	-196.112228	-749.526672	43.329124	-166.738037	-889.964844	629.882690	-427.981232	-863.752380	443.773041	-358.213501	-1017.916931	335.296112	-374.877563	-1165.486450	206.082443	-290.202576	-1184.917725	238.681732	-240.301239	-1103.095337	96.032944	-296.096375
5	0.04000000	-851.001160	1324.834229	-48.019077	-883.582275	1346.629517	-398.684998	-921.918640	1401.925781	-220.400467	-813.823669	1270.572510	-232.210678	-937.587036	1006.983582	47.107319	-960.111511	1009.274292	-454.764252	-876.866974	781.431641	95.234741	-889.768768	789.540009	-504.976639	-826.817383	914.697937	-85.590881	-863.155396	912.011658	-366.094910	-1012.308167	915.550354	-141.432373	-1026.817139	913.890747	-251.511276	-1019.562653	914.720551	-196.471825	-980.547302	1195.018677	-216.010040	-789.192932	1075.988525	-226.134003	-826.900696	597.858643	-23.605598	-794.766846	444.074585	-108.442657	-823.850586	227.025345	-81.252502	-877.860474	63.176277	-150.498291	-923.834290	58.018929	-196.199509	-749.521179	43.357063	-166.996887	-878.007324	631.051025	-428.076935	-845.504211	446.414307	-358.656830	-998.530945	337.278931	-375.995758	-1145.070312	206.336700	-292.282410	-1165.531494	238.274353	-242.356293	-1080.336426	98.098991	-299.136932
6	0.05000000	-842.697083	1325.096802	-48.081512	-876.930237	1347.133423	-398.474609	-914.425049	1402.507690	-220.052216	-806.680481	1270.816772	-232.383728	-927.246582	1006.979187	47.886585	-954.377258	1009.965576	-454.336731	-863.634094	781.949158	94.733337	-885.269470	789.923981	-504.853928	-820.071716	915.015991	-85.305351	-856.747620	912.864929	-365.845123	-1005.636658	915.997925	-140.971008	-1020.284363	914.355164	-251.025391	-1012.960510	915.176544	-195.998199	-973.582153	1195.759277	-215.230438	-782.506653	1076.198364	-226.418396	-821.801941	597.665527	-23.696898	-791.898010	443.497620	-108.749405	-822.788452	226.656067	-81.388496	-877.751099	63.174988	-150.689102	-923.802002	58.127819	-196.268158	-749.516357	43.382652	-167.229813	-865.890442	632.408630	-428.143280	-827.471436	449.227020	-359.041199	-978.752869	338.577362	-377.252319	-1123.925537	205.487488	-294.524750	-1145.595947	236.788651	-244.718887	-1056.502686	99.300087	-301.748535
7	0.06000000	-834.438843	1325.334961	-48.181778	-870.301331	1347.557983	-398.297424	-906.966125	1403.010864	-219.746811	-799.557739	1271.011108	-232.573593	-916.850220	1006.930664	48.606323	-948.655945	1010.567505	-453.915955	-850.358978	782.459900	94.112545	-880.657928	790.256836	-504.749634	-813.349854	915.295044	-85.022263	-850.239502	913.697632	-365.595245	-998.957275	916.365356	-140.585480	-1013.695679	914.733337	-250.623779	-1006.326477	915.549347	-195.604630	-966.633545	1196.413208	-214.512253	-775.815063	1076.384399	-226.671570	-816.796692	597.452942	-23.784172	-789.101685	442.918610	-109.013809	-821.713928	226.282288	-81.518288	-877.625732	63.134617	-150.862793	-923.770508	58.227856	-196.320175	-749.511108	43.406986	-167.437271	-853.641846	633.932373	-428.179199	-809.676514	452.190002	-359.366730	-958.601196	339.199799	-378.632202	-1102.062012	203.561966	-296.913757	-1125.104492	234.233124	-247.357162	-1031.630249	99.670898	-303.982819
8	0.07000000	-826.228088	1325.546753	-48.318886	-863.693237	1347.902466	-398.153534	-899.541321	1403.434692	-219.484268	-792.454407	1271.154785	-232.779602	-906.398926	1006.837219	49.266674	-942.946228	1011.079712	-453.502075	-837.043030	782.963196	93.373569	-875.934601	790.537598	-504.663483	-806.650146	915.533691	-84.740585	-843.628235	914.503784	-365.346405	-992.269043	916.651733	-140.276077	-1007.050110	915.023682	-250.306656	-999.659576	915.837708	-195.291367	-959.700623	1196.979980	-213.856293	-769.116089	1076.545044	-226.893906	-811.873352	597.217834	-23.862654	-786.374451	442.335907	-109.237000	-820.621338	225.901077	-81.640152	-877.486877	63.063747	-151.022705	-923.737244	58.321701	-196.358475	-749.503479	43.431149	-167.620422	-841.299683	635.586243	-428.183990	-792.150024	455.272705	-359.633575	-938.102844	339.161041	-380.114807	-1079.492798	200.601120	-299.428864	-1104.046509	230.624130	-250.229080	-1005.770264	99.261551	-305.908630
